<svg class="search-icon" width="15px" height="13px" viewBox="0 0 15 13" version="1.1" xmlns="http://www.w3.org/2000/svg" xmlns:xlink="http://www.w3.org/1999/xlink">
    <title>0C1A954E-4DF6-4994-BEB5-3416B53DADEF</title>
    <desc>Created with sketchtool.</desc>
    <g id="Hiring-process-(ATS)" stroke="none" stroke-width="1" fill="none" fill-rule="evenodd">
        <g id="search-default" transform="translate(-1153.000000, -72.000000)" fill="#979797" fill-rule="nonzero">
            <g id="Group-11" transform="translate(1145.000000, 65.000000)">
                <g id="noun_Search_2863045" transform="translate(8.000000, 7.000000)">
                    <g id="Group">
                        <path d="M6.13888889,11.05 C2.74847418,11.05 0,8.57637326 0,5.525 C0,2.47362676 2.74847418,0 6.13888889,0 C9.52930362,0 12.2777778,2.47362676 12.2777778,5.525 C12.2777778,8.57637326 9.52930362,11.05 6.13888889,11.05 Z M6.13888889,9.75 C8.73155898,9.75 10.8333333,7.85840308 10.8333333,5.525 C10.8333333,3.19159691 8.73155898,1.3 6.13888889,1.3 C3.54621879,1.3 1.44444444,3.19159691 1.44444444,5.525 C1.44444444,7.85840308 3.54621879,9.75 6.13888889,9.75 Z" id="Shape"></path>
                        <path d="M14.2329105,11.8903806 C14.5149558,12.1442214 14.5149558,12.5557786 14.2329105,12.8096194 C13.9508651,13.0634602 13.4935793,13.0634602 13.211534,12.8096194 L9.45597842,9.42961942 C9.17393309,9.17577863 9.17393309,8.76422138 9.45597842,8.51038058 C9.73802375,8.25653979 10.1953096,8.25653979 10.4773549,8.51038058 L14.2329105,11.8903806 Z" id="Path"></path>
                    </g>
                </g>
            </g>
        </g>
    </g>
</svg>